<svg viewBox="0 0 200 180" fill="none" xmlns="http://www.w3.org/2000/svg">
  <!-- Ashoka Chakra -->
  <g transform="translate(100, 32)">
    <circle cx="0" cy="0" r="22" stroke="#0B1E40" stroke-width="3" fill="#FFFFFF" />
    <circle cx="0" cy="0" r="19.5" stroke="#0B1E40" stroke-width="1.2" fill="none" opacity="0.6" />
    
    <!-- 24 Spokes -->
    <line x1="0" y1="0" x2="0" y2="-19" stroke="#0B1E40" stroke-width="1.4" stroke-linecap="round" />
    <line x1="0" y1="0" x2="0" y2="-19" stroke="#0B1E40" stroke-width="1.4" stroke-linecap="round" transform="rotate(15)" />
    <line x1="0" y1="0" x2="0" y2="-19" stroke="#0B1E40" stroke-width="1.4" stroke-linecap="round" transform="rotate(30)" />
    <line x1="0" y1="0" x2="0" y2="-19" stroke="#0B1E40" stroke-width="1.4" stroke-linecap="round" transform="rotate(45)" />
    <line x1="0" y1="0" x2="0" y2="-19" stroke="#0B1E40" stroke-width="1.4" stroke-linecap="round" transform="rotate(60)" />
    <line x1="0" y1="0" x2="0" y2="-19" stroke="#0B1E40" stroke-width="1.4" stroke-linecap="round" transform="rotate(75)" />
    <line x1="0" y1="0" x2="0" y2="-19" stroke="#0B1E40" stroke-width="1.4" stroke-linecap="round" transform="rotate(90)" />
    <line x1="0" y1="0" x2="0" y2="-19" stroke="#0B1E40" stroke-width="1.4" stroke-linecap="round" transform="rotate(105)" />
    <line x1="0" y1="0" x2="0" y2="-19" stroke="#0B1E40" stroke-width="1.4" stroke-linecap="round" transform="rotate(120)" />
    <line x1="0" y1="0" x2="0" y2="-19" stroke="#0B1E40" stroke-width="1.4" stroke-linecap="round" transform="rotate(135)" />
    <line x1="0" y1="0" x2="0" y2="-19" stroke="#0B1E40" stroke-width="1.4" stroke-linecap="round" transform="rotate(150)" />
    <line x1="0" y1="0" x2="0" y2="-19" stroke="#0B1E40" stroke-width="1.4" stroke-linecap="round" transform="rotate(165)" />
    <line x1="0" y1="0" x2="0" y2="-19" stroke="#0B1E40" stroke-width="1.4" stroke-linecap="round" transform="rotate(180)" />
    <line x1="0" y1="0" x2="0" y2="-19" stroke="#0B1E40" stroke-width="1.4" stroke-linecap="round" transform="rotate(195)" />
    <line x1="0" y1="0" x2="0" y2="-19" stroke="#0B1E40" stroke-width="1.4" stroke-linecap="round" transform="rotate(210)" />
    <line x1="0" y1="0" x2="0" y2="-19" stroke="#0B1E40" stroke-width="1.4" stroke-linecap="round" transform="rotate(225)" />
    <line x1="0" y1="0" x2="0" y2="-19" stroke="#0B1E40" stroke-width="1.4" stroke-linecap="round" transform="rotate(240)" />
    <line x1="0" y1="0" x2="0" y2="-19" stroke="#0B1E40" stroke-width="1.4" stroke-linecap="round" transform="rotate(255)" />
    <line x1="0" y1="0" x2="0" y2="-19" stroke="#0B1E40" stroke-width="1.4" stroke-linecap="round" transform="rotate(270)" />
    <line x1="0" y1="0" x2="0" y2="-19" stroke="#0B1E40" stroke-width="1.4" stroke-linecap="round" transform="rotate(285)" />
    <line x1="0" y1="0" x2="0" y2="-19" stroke="#0B1E40" stroke-width="1.4" stroke-linecap="round" transform="rotate(300)" />
    <line x1="0" y1="0" x2="0" y2="-19" stroke="#0B1E40" stroke-width="1.4" stroke-linecap="round" transform="rotate(315)" />
    <line x1="0" y1="0" x2="0" y2="-19" stroke="#0B1E40" stroke-width="1.4" stroke-linecap="round" transform="rotate(330)" />
    <line x1="0" y1="0" x2="0" y2="-19" stroke="#0B1E40" stroke-width="1.4" stroke-linecap="round" transform="rotate(345)" />

    <circle cx="0" cy="0" r="4" fill="#0B1E40" />
    <circle cx="0" cy="0" r="1.8" fill="#FFFFFF" />
  </g>

  <!-- Tricolor Low-Poly Wings / Lotus Geometric Vessel -->
  <!-- Saffron Top -->
  <polygon points="35,100 65,65 75,100" fill="#E65A00" />
  <polygon points="65,65 100,100 75,100" fill="#FF8026" />
  <polygon points="75,100 100,65 100,100" fill="#FF8D3B" />
  <polygon points="100,65 125,100 100,100" fill="#FFA559" />
  <polygon points="100,100 135,65 125,100" fill="#FF8026" />
  <polygon points="135,65 165,100 125,100" fill="#E65A00" />

  <!-- White Middle -->
  <polygon points="35,100 55,130 75,100" fill="#CBD5E1" />
  <polygon points="55,130 100,130 75,100" fill="#F8FAFC" />
  <polygon points="75,100 100,100 100,130" fill="#E2E8F0" />
  <polygon points="100,100 125,100 100,130" fill="#FFFFFF" />
  <polygon points="100,130 125,100 145,130" fill="#E2E8F0" />
  <polygon points="125,100 165,100 145,130" fill="#CBD5E1" />

  <!-- Green Base -->
  <polygon points="55,130 75,160 100,130" fill="#15803D" />
  <polygon points="75,160 100,160 100,130" fill="#16A34A" />
  <polygon points="100,130 100,160 125,160" fill="#22C55E" />
  <polygon points="100,130 125,160 145,130" fill="#15803D" />
</svg>
